Coordinates
version=1
nRows=19
nColumns=34
inDegrees=yes

Units are S.I. units (second, meters, Newtons, ...)
If the header above contains a line with 'inDegrees', this indicates whether rotational values are in degrees (yes) or radians (no).

endheader
time	pelvis_tilt	pelvis_list	pelvis_rotation	pelvis_tx	pelvis_ty	pelvis_tz	hip_flexion_r	hip_adduction_r	hip_rotation_r	knee_angle_r	ankle_angle_r	subtalar_angle_r	mtp_angle_r	hip_flexion_l	hip_adduction_l	hip_rotation_l	knee_angle_l	ankle_angle_l	subtalar_angle_l	mtp_angle_l	lumbar_extension	lumbar_bending	lumbar_rotation	arm_flex_r	arm_add_r	arm_rot_r	elbow_flex_r	pro_sup_r	arm_flex_l	arm_add_l	arm_rot_l	elbow_flex_l	pro_sup_l
     12.70000000	    -10.39227441	     -7.33139741	     -2.82092837	      0.15502456	      0.87348762	     -0.10980679	     56.43331458	      2.18014474	     -4.00492712	     25.58871080	      1.95307192	    -15.31341782	      0.00000000	     37.81143600	     -3.24026562	     -2.76204539	     43.22896228	      4.30427588	    -35.00000000	      0.00000000	    -17.73838185	     -1.16065540	      3.06447221	     66.74161574	      8.49516320	     59.61925635	    117.33875264	    104.34473192	     65.04258579	      7.55070578	     68.31471762	    121.65150304	     88.01425276
     12.71666670	    -11.01179343	     -7.27281584	     -2.82393523	      0.16103241	      0.86759282	     -0.10792163	     57.51478240	      2.07083030	     -4.66310305	     23.18740602	     -0.01256431	    -15.36870282	      0.00000000	     39.50188985	     -3.27270422	     -2.62269953	     45.20990125	      4.86945878	    -35.00000000	      0.00000000	    -17.98126268	     -1.25716182	      3.25979679	     66.81227537	      8.37597602	     59.13145186	    117.09838915	    104.06022986	     65.31211672	      7.60781851	     69.56778127	    122.74557524	     88.22625063
     12.73333330	    -12.36522520	     -7.19743052	     -3.42647828	      0.15802238	      0.85898312	     -0.10792500	     59.34282028	      2.24082965	     -5.54985519	     21.26621644	     -3.04182615	    -16.56251569	      0.00000000	     42.31608287	     -3.52964124	     -2.73113037	     47.55233839	      4.76056555	    -35.00000000	      0.00000000	    -17.71950045	     -1.52302736	      3.43785433	     66.96117220	      8.65117112	     58.90782408	    117.41384144	    103.72444959	     65.94225576	      7.70171756	     71.41486366	    124.55864539	     88.45618206
     12.75000000	    -12.64832368	     -7.48023988	     -3.30745788	      0.15890438	      0.85748484	     -0.10778010	     59.77984930	      2.38063250	     -5.91294742	     19.48350789	     -4.62625574	    -17.65288296	      0.00000000	     43.74114901	     -3.85921432	     -2.65079518	     49.44214553	      4.45658284	    -35.00000000	      0.00000000	    -18.09603680	     -1.34318493	      3.41010041	     66.74116699	      8.71201849	     58.27629459	    117.02815555	    103.31305246	     66.23043401	      7.59393511	     72.48262592	    124.99898296	     88.56384994
     12.76666670	    -13.10300716	     -7.79908512	     -2.53447413	      0.15708968	      0.85374191	     -0.10907847	     60.16336710	      2.09389092	     -6.01799955	     17.42743237	     -6.09943434	    -17.53268026	      0.00000000	     45.35616167	     -3.51020629	     -1.86434106	     51.18182376	      4.73601495	    -35.00000000	      0.00000000	    -18.57099331	     -0.99024473	      3.25909071	     66.40146095	      8.59724996	     58.03527320	    117.16675623	    102.90180451	     66.47581207	      7.75508518	     74.03377640	    125.77510423	     88.65693578
     12.78333330	    -13.16949901	     -7.67378646	     -1.98785908	      0.15080637	      0.84981912	     -0.10939355	     60.58336714	      1.58752302	     -6.29754989	     15.81053014	     -8.27761839	    -16.84668755	      0.00000000	     46.20814893	     -2.74557022	     -1.18665985	     51.99620640	      5.26025146	    -35.00000000	      0.00000000	    -19.45628770	     -1.10521939	      2.99228028	     66.43762117	      8.63492709	     57.91698977	    117.19920798	    102.70693943	     67.31821408	      7.66569892	     74.24920409	    125.59876936	     88.64654127
     12.80000000	    -13.28224904	     -8.21730113	     -2.01420788	      0.15195589	      0.84368035	     -0.10988042	     60.86057801	      2.01583095	     -6.53336061	     15.29281317	    -10.72869459	    -18.80748119	      0.00000000	     47.37025117	     -2.83147513	     -0.01195779	     53.53157461	      5.75931420	    -35.00000000	      0.00000000	    -20.23374837	     -0.46814436	      3.49344041	     66.49849801	      8.46767427	     58.17380838	    117.62929111	    102.11639160	     68.03351890	      7.74648551	     75.33757032	    125.56561017	     88.57947331
     12.81666670	    -12.92531291	     -7.93122369	     -1.86894533	      0.15466639	      0.83933585	     -0.10892588	     60.39475363	      2.02643212	     -6.64088990	     13.16915721	    -12.87720393	    -18.38428817	      0.00000000	     47.65086100	     -2.37755450	      0.17051386	     54.56672313	      5.43624933	    -35.00000000	      0.00000000	    -20.94439915	     -0.97474982	      3.82135175	     66.28981990	      8.36788618	     57.79107494	    117.29842889	    101.75017211	     68.61006194	      7.61030596	     75.48078741	    125.11671348	     88.47830472
     12.83333330	    -11.87948145	     -8.24307540	     -1.34082192	      0.15445763	      0.83379266	     -0.10735179	     58.99964746	      2.17007942	     -6.38485440	     10.65973139	    -14.39917899	    -18.76832851	      0.00000000	     48.00508851	     -2.21965349	      1.11943459	     56.19166798	      4.78569029	    -35.00000000	      0.00000000	    -22.11621222	     -0.76676753	      4.17775834	     66.21758913	      8.01791618	     57.51569878	    117.55311452	    100.86634837	     69.28062344	      7.87809911	     75.98410681	    124.43484387	     88.15555830
     12.85000000	    -11.89084007	     -8.35688619	     -1.16251747	      0.15510129	      0.82861418	     -0.10686615	     58.78934647	      2.37455264	     -5.53488626	      8.80650321	    -14.08395097	    -18.51431284	      0.00000000	     49.01385864	     -1.98770058	      1.88801142	     57.80280229	      4.78423283	    -35.00000000	      0.00000000	    -22.49081489	     -1.08085865	      4.13488204	     66.03730016	      7.98799136	     57.47656717	    117.56283494	    100.77164816	     69.67523346	      7.79620498	     75.92613194	    124.32161752	     88.11074101
     12.86666670	    -11.58329269	     -8.94620026	      0.26826808	      0.15646711	      0.82454967	     -0.10729291	     58.18160107	      1.87833987	     -5.77899112	      6.51370750	    -12.95869535	    -16.67706796	      0.00000000	     49.55857777	     -1.41654411	      3.13532172	     59.41795708	      4.30107891	    -35.00000000	      0.00000000	    -23.12114343	     -0.45800929	      4.39149423	     65.25993650	      7.21790487	     56.54378177	    118.25307564	     99.38251672	     70.38961863	      8.69647460	     77.15991505	    123.39629300	     87.40553320
     12.88333330	    -11.45402076	     -9.41716311	      0.89797577	      0.15687094	      0.81851889	     -0.10782041	     57.93109031	      1.88563568	     -5.16773286	      6.08225221	    -12.36054319	    -15.97598992	      0.00000000	     50.21817841	     -1.17814428	      4.06676224	     61.35909493	      2.66642681	    -35.00000000	      0.00000000	    -23.75264142	      0.03645923	      4.08957444	     64.95710342	      7.48112231	     56.21216726	    118.37618136	     99.10417199	     71.02703276	      8.45837294	     76.85690498	    122.97665506	     87.19894960
     12.90000000	    -11.54936155	     -9.00910743	      1.12024339	      0.15697838	      0.81249296	     -0.10823017	     58.01286497	      1.52917846	     -5.21361345	      4.24985686	    -13.39754082	    -14.36124635	      0.00000000	     50.89565599	     -0.23350550	      4.46792905	     62.30340108	      4.60243789	    -35.00000000	      0.00000000	    -24.31488374	     -0.42744732	      3.74087494	     64.61601607	      7.87285842	     55.87572732	    118.52484742	     98.87489483	     71.56871586	      8.17356027	     76.36159936	    122.74058761	     87.00220784
     12.91666670	    -11.67822070	     -9.11981320	      1.24310325	      0.15940719	      0.80648615	     -0.11034530	     57.93985420	      1.54192947	     -4.89915808	      3.48164248	    -13.47328226	    -13.04922272	      0.00000000	     51.78477568	      0.43718384	      5.37788180	     63.94081772	      7.32191251	    -35.00000000	      0.00000000	    -24.63720488	     -0.26368117	      3.71795000	     64.68161240	      8.09477801	     55.46082377	    118.73966235	     98.64436147	     71.90195174	      7.88258212	     75.69475543	    122.33583781	     86.78712959
     12.93333330	    -12.03881325	     -8.67744283	      1.20118855	      0.15835613	      0.80034247	     -0.11065460	     58.17969812	      1.33889898	     -5.43367721	      2.28644169	    -11.49013425	     -9.62689375	      0.00000000	     52.60172934	      1.36432331	      5.58620511	     65.27912468	      8.36527532	    -35.00000000	      0.00000000	    -24.66546801	     -0.68924916	      3.82128071	     64.56059028	      8.17480144	     55.30956757	    119.22994692	     98.09198341	     71.80673764	      7.75906466	     75.29200344	    122.35506173	     86.35478827
     12.95000000	    -12.08047783	     -8.39030466	      1.35196294	      0.16050927	      0.79714904	     -0.11045040	     58.23549783	      1.13541101	     -4.76707342	      0.78927936	    -10.24021873	     -7.13597496	      0.00000000	     52.90927640	      1.99861199	      5.72972162	     66.49383724	      6.99727685	    -35.00000000	      0.00000000	    -25.02070790	     -1.04269038	      3.87561222	     64.43409740	      8.43988629	     55.01427661	    119.65861814	     97.85488896	     71.81189525	      7.59914085	     75.02846037	    122.16771564	     86.19929588
     12.96666670	    -12.27235000	     -8.58018094	      1.43479057	      0.16310910	      0.79247725	     -0.11013014	     58.29747537	      1.22846858	     -4.19700435	      0.22004839	     -9.33076414	     -5.68843610	      0.00000000	     53.98727873	      2.15158467	      6.19832703	     67.66590912	      8.67873762	    -35.00000000	      0.00000000	    -25.19198034	     -0.90410000	      4.13467011	     64.41555063	      8.56527223	     54.86159738	    120.15711248	     97.69543786	     71.93741548	      7.59931540	     74.74260101	    121.93858433	     86.10448401
     12.98333330	    -12.86100622	     -7.96699805	      1.23050272	      0.16524053	      0.78875619	     -0.11072511	     59.23104593	      0.84968141	     -4.52258168	      0.00000000	     -8.52094794	     -3.99170478	      0.00000000	     54.47682331	      2.64219082	      5.84067341	     68.16850785	      8.38596579	    -35.00000000	      0.00000000	    -24.78415570	     -1.57194211	      4.20964672	     64.02960736	      8.69779302	     55.04128198	    120.59852059	     97.42653599	     71.42965652	      7.52170238	     75.00193569	    121.78128311	     85.99975627
     13.00000000	    -12.94929978	     -7.71268174	      1.63018639	      0.17167810	      0.78501054	     -0.10980743	     58.95371051	      0.47180092	     -3.96657344	      0.00000000	     -7.78452184	     -3.55043541	      0.00000000	     54.67978854	      3.03686020	      5.84550698	     69.12478077	      8.03862526	    -35.00000000	      0.00000000	    -24.75969832	     -1.76561023	      4.00776750	     63.14287255	      9.00982438	     55.50552679	    121.11988892	     97.41375483	     70.74196551	      7.37039253	     75.26998703	    121.81542626	     86.00057475
